<svg width="169" height="126" viewBox="0 0 169 126" fill="none" xmlns="http://www.w3.org/2000/svg">
<path d="M15.6 96.575C15.1 96.025 14.4333 95.575 13.6 95.225C12.7667 94.8583 11.8167 94.675 10.75 94.675C9.18333 94.675 8.04167 94.975 7.325 95.575C6.60833 96.1583 6.25 96.9583 6.25 97.975C6.25 98.675 6.425 99.225 6.775 99.625C7.125 100.025 7.65833 100.358 8.375 100.625C9.10833 100.875 10.0417 101.125 11.175 101.375C12.4417 101.642 13.5333 101.958 14.45 102.325C15.3667 102.692 16.075 103.192 16.575 103.825C17.075 104.442 17.325 105.283 17.325 106.35C17.325 107.433 17.05 108.333 16.5 109.05C15.95 109.767 15.1917 110.3 14.225 110.65C13.2583 110.983 12.1583 111.15 10.925 111.15C8.15833 111.15 5.78333 110.292 3.8 108.575L4.675 107.15C5.30833 107.817 6.175 108.392 7.275 108.875C8.39167 109.358 9.625 109.6 10.975 109.6C12.375 109.6 13.475 109.342 14.275 108.825C15.075 108.308 15.475 107.542 15.475 106.525C15.475 105.792 15.275 105.208 14.875 104.775C14.475 104.325 13.875 103.958 13.075 103.675C12.275 103.392 11.2917 103.117 10.125 102.85C8.89167 102.567 7.85 102.25 7 101.9C6.16667 101.55 5.53333 101.092 5.1 100.525C4.66667 99.9583 4.45 99.1917 4.45 98.225C4.45 97.125 4.71667 96.2 5.25 95.45C5.8 94.6833 6.55 94.1083 7.5 93.725C8.45 93.325 9.54167 93.125 10.775 93.125C11.9417 93.125 12.9917 93.3083 13.925 93.675C14.8583 94.025 15.7 94.525 16.45 95.175L15.6 96.575ZM27.5605 111.125C26.3105 111.125 25.1772 110.875 24.1605 110.375C23.1439 109.858 22.2689 109.175 21.5355 108.325C20.8022 107.475 20.2355 106.517 19.8355 105.45C19.4355 104.367 19.2355 103.258 19.2355 102.125C19.2355 100.942 19.4439 99.8167 19.8605 98.75C20.2772 97.6667 20.8605 96.7083 21.6105 95.875C22.3772 95.025 23.2689 94.3583 24.2855 93.875C25.3022 93.375 26.4022 93.125 27.5855 93.125C28.8189 93.125 29.9439 93.3833 30.9605 93.9C31.9772 94.4167 32.8522 95.1083 33.5855 95.975C34.3355 96.8417 34.9022 97.8083 35.2855 98.875C35.6855 99.9417 35.8855 101.033 35.8855 102.15C35.8855 103.333 35.6772 104.467 35.2605 105.55C34.8439 106.617 34.2605 107.575 33.5105 108.425C32.7605 109.258 31.8772 109.917 30.8605 110.4C29.8439 110.883 28.7439 111.125 27.5605 111.125ZM20.9855 102.125C20.9855 103.092 21.1439 104.017 21.4605 104.9C21.7772 105.783 22.2272 106.575 22.8105 107.275C23.3939 107.975 24.0855 108.533 24.8855 108.95C25.7022 109.35 26.5939 109.55 27.5605 109.55C28.5772 109.55 29.4855 109.342 30.2855 108.925C31.1022 108.492 31.7939 107.917 32.3605 107.2C32.9439 106.483 33.3855 105.692 33.6855 104.825C33.9855 103.942 34.1355 103.042 34.1355 102.125C34.1355 101.158 33.9772 100.233 33.6605 99.35C33.3439 98.4667 32.8855 97.675 32.2855 96.975C31.7022 96.275 31.0105 95.725 30.2105 95.325C29.4105 94.925 28.5272 94.725 27.5605 94.725C26.5605 94.725 25.6522 94.9333 24.8355 95.35C24.0355 95.7667 23.3439 96.3333 22.7605 97.05C22.1939 97.75 21.7522 98.5417 21.4355 99.425C21.1355 100.308 20.9855 101.208 20.9855 102.125ZM39.185 111V93.25H46.535C47.3016 93.25 48.0016 93.4083 48.635 93.725C49.285 94.0417 49.8433 94.475 50.31 95.025C50.7933 95.5583 51.16 96.1583 51.41 96.825C51.6766 97.475 51.81 98.1417 51.81 98.825C51.81 99.7917 51.5933 100.708 51.16 101.575C50.7266 102.425 50.1266 103.117 49.36 103.65C48.5933 104.183 47.7016 104.45 46.685 104.45H40.935V111H39.185ZM40.935 102.9H46.61C47.31 102.9 47.9183 102.708 48.435 102.325C48.9516 101.942 49.3516 101.442 49.635 100.825C49.9183 100.208 50.06 99.5417 50.06 98.825C50.06 98.0917 49.8933 97.425 49.56 96.825C49.2266 96.2083 48.785 95.7167 48.235 95.35C47.7016 94.9833 47.11 94.8 46.46 94.8H40.935V102.9ZM54.7367 111V93.25H62.0867C62.8534 93.25 63.5534 93.4083 64.1867 93.725C64.8367 94.0417 65.3951 94.475 65.8617 95.025C66.3451 95.5583 66.7117 96.1583 66.9617 96.825C67.2284 97.475 67.3617 98.1417 67.3617 98.825C67.3617 99.7917 67.1451 100.708 66.7117 101.575C66.2784 102.425 65.6784 103.117 64.9117 103.65C64.1451 104.183 63.2534 104.45 62.2367 104.45H56.4867V111H54.7367ZM56.4867 102.9H62.1617C62.8617 102.9 63.4701 102.708 63.9867 102.325C64.5034 101.942 64.9034 101.442 65.1867 100.825C65.4701 100.208 65.6117 99.5417 65.6117 98.825C65.6117 98.0917 65.4451 97.425 65.1117 96.825C64.7784 96.2083 64.3367 95.7167 63.7867 95.35C63.2534 94.9833 62.6617 94.8 62.0117 94.8H56.4867V102.9ZM77.5135 111.125C76.1135 111.125 74.9301 110.875 73.9635 110.375C73.0135 109.875 72.2468 109.2 71.6635 108.35C71.0801 107.5 70.6635 106.55 70.4135 105.5C70.1635 104.433 70.0385 103.333 70.0385 102.2V93.25H71.7635V102.2C71.7635 103.133 71.8551 104.042 72.0385 104.925C72.2385 105.792 72.5551 106.575 72.9885 107.275C73.4218 107.975 74.0051 108.533 74.7385 108.95C75.4718 109.35 76.3885 109.55 77.4885 109.55C78.6218 109.55 79.5551 109.342 80.2885 108.925C81.0385 108.508 81.6301 107.95 82.0635 107.25C82.4968 106.533 82.7968 105.742 82.9635 104.875C83.1468 103.992 83.2385 103.1 83.2385 102.2V93.25H84.9885V102.2C84.9885 103.383 84.8551 104.517 84.5885 105.6C84.3218 106.667 83.8885 107.617 83.2885 108.45C82.7051 109.283 81.9385 109.942 80.9885 110.425C80.0385 110.892 78.8801 111.125 77.5135 111.125ZM89.1605 111V93.25H96.5105C97.2772 93.25 97.9772 93.4083 98.6105 93.725C99.2605 94.0417 99.8189 94.475 100.286 95.025C100.769 95.5583 101.136 96.1583 101.386 96.825C101.652 97.475 101.786 98.1417 101.786 98.825C101.786 99.7917 101.569 100.708 101.136 101.575C100.702 102.425 100.102 103.117 99.3355 103.65C98.5689 104.183 97.6772 104.45 96.6605 104.45H90.9105V111H89.1605ZM90.9105 102.9H96.5855C97.2855 102.9 97.8939 102.708 98.4105 102.325C98.9272 101.942 99.3272 101.442 99.6105 100.825C99.8939 100.208 100.036 99.5417 100.036 98.825C100.036 98.0917 99.8689 97.425 99.5355 96.825C99.2022 96.2083 98.7605 95.7167 98.2105 95.35C97.6772 94.9833 97.0855 94.8 96.4355 94.8H90.9105V102.9ZM116.637 109.45V111H104.712V93.25H116.412V94.8H106.462V101.2H115.137V102.675H106.462V109.45H116.637ZM132.547 94.8H126.222V111H124.472V94.8H118.147V93.25H132.547V94.8ZM145.58 96.575C145.08 96.025 144.414 95.575 143.58 95.225C142.747 94.8583 141.797 94.675 140.73 94.675C139.164 94.675 138.022 94.975 137.305 95.575C136.589 96.1583 136.23 96.9583 136.23 97.975C136.23 98.675 136.405 99.225 136.755 99.625C137.105 100.025 137.639 100.358 138.355 100.625C139.089 100.875 140.022 101.125 141.155 101.375C142.422 101.642 143.514 101.958 144.43 102.325C145.347 102.692 146.055 103.192 146.555 103.825C147.055 104.442 147.305 105.283 147.305 106.35C147.305 107.433 147.03 108.333 146.48 109.05C145.93 109.767 145.172 110.3 144.205 110.65C143.239 110.983 142.139 111.15 140.905 111.15C138.139 111.15 135.764 110.292 133.78 108.575L134.655 107.15C135.289 107.817 136.155 108.392 137.255 108.875C138.372 109.358 139.605 109.6 140.955 109.6C142.355 109.6 143.455 109.342 144.255 108.825C145.055 108.308 145.455 107.542 145.455 106.525C145.455 105.792 145.255 105.208 144.855 104.775C144.455 104.325 143.855 103.958 143.055 103.675C142.255 103.392 141.272 103.117 140.105 102.85C138.872 102.567 137.83 102.25 136.98 101.9C136.147 101.55 135.514 101.092 135.08 100.525C134.647 99.9583 134.43 99.1917 134.43 98.225C134.43 97.125 134.697 96.2 135.23 95.45C135.78 94.6833 136.53 94.1083 137.48 93.725C138.43 93.325 139.522 93.125 140.755 93.125C141.922 93.125 142.972 93.3083 143.905 93.675C144.839 94.025 145.68 94.525 146.43 95.175L145.58 96.575Z" fill="black"/>
<rect x="2.9978" width="153.447" height="11" rx="5.5" transform="rotate(15.8142 2.9978 0)" fill="#FF5443"/>
<rect x="26" y="51.7665" width="102" height="11" rx="5.5" transform="rotate(-22.3376 26 51.7665)" fill="#F9864F"/>
<line x1="141.777" y1="55.9798" x2="141.223" y2="88.0375" stroke="black"/>
<line x1="112.054" y1="52.0086" x2="111.5" y2="84.0663" stroke="black"/>
<line x1="5.73117" y1="25.9914" x2="6.2687" y2="78.0559" stroke="black"/>
<line x1="36.4998" y1="65.9843" x2="37.0373" y2="83.0487" stroke="black"/>
</svg>
